<?xml version="1.0" standalone="no"?>
<!DOCTYPE svg PUBLIC "-//W3C//DTD SVG 20010904//EN"
 "http://www.w3.org/TR/2001/REC-SVG-20010904/DTD/svg10.dtd">
<svg version="1.0" xmlns="http://www.w3.org/2000/svg"
 width="458.000000pt" height="305.000000pt" viewBox="0 0 458.000000 305.000000"
 preserveAspectRatio="xMidYMid meet">
<metadata>
Created by potrace 1.16, written by Peter Selinger 2001-2019
</metadata>
<g transform="translate(0.000000,305.000000) scale(0.100000,-0.100000)"
fill="#000000" stroke="none">
<path d="M1935 2139 c-633 -31 -1201 -255 -1535 -605 -152 -159 -210 -264
-210 -379 0 -186 133 -348 469 -573 295 -197 639 -325 1051 -389 179 -28 624
-25 819 5 172 27 410 87 547 137 159 58 410 187 560 287 252 168 403 345 421
495 20 176 -129 354 -510 611 -454 306 -986 441 -1612 411z m1520 -1255 c-32
-25 -180 -111 -258 -151 -112 -56 -275 -119 -399 -153 -62 -18 -122 -34 -133
-37 -13 -4 1 17 39 58 67 72 27 55 461 203 284 97 328 109 290 80z m-2037
-260 c117 -43 189 -80 179 -91 -7 -7 -194 43 -308 82 -57 20 -151 59 -208 86
-99 47 -267 144 -277 160 -2 4 106 -37 242 -91 135 -55 303 -121 372 -146z"/>
</g>
</svg>
