<?xml version="1.0" standalone="no"?>
<!DOCTYPE svg PUBLIC "-//W3C//DTD SVG 20010904//EN"
 "http://www.w3.org/TR/2001/REC-SVG-20010904/DTD/svg10.dtd">
<svg version="1.0" xmlns="http://www.w3.org/2000/svg"
 width="458.000000pt" height="305.000000pt" viewBox="0 0 458.000000 305.000000"
 preserveAspectRatio="xMidYMid meet">
<metadata>
Created by potrace 1.16, written by Peter Selinger 2001-2019
</metadata>
<g transform="translate(0.000000,305.000000) scale(0.100000,-0.100000)"
fill="#000000" stroke="none">
<path d="M1999 2593 c-26 -16 -27 -21 -50 -233 l-23 -218 -75 -7 c-616 -54
-1134 -268 -1451 -601 -152 -159 -210 -264 -210 -379 0 -186 133 -348 469
-573 295 -197 639 -325 1051 -389 91 -14 173 -18 395 -17 321 0 452 15 720 84
196 50 314 94 511 190 329 162 597 375 678 540 82 168 50 294 -118 463 l-73
73 82 59 c46 33 85 67 88 76 9 32 -12 49 -59 49 -43 0 -51 -4 -113 -65 l-67
-64 -72 53 c-39 29 -101 73 -137 96 -36 23 -65 45 -64 49 0 3 49 48 109 99 96
81 108 95 101 115 -12 32 -49 49 -96 43 -34 -4 -48 -14 -95 -68 -30 -34 -69
-78 -86 -97 l-32 -35 -130 62 c-72 34 -133 62 -136 62 -2 0 -17 5 -31 10 l-27
10 97 105 c87 94 95 106 85 125 -17 32 -75 53 -126 45 -40 -6 -44 -10 -108
-110 -37 -58 -71 -107 -76 -110 -5 -3 -62 8 -127 24 -65 16 -144 35 -175 41
-32 6 -58 14 -58 17 0 3 36 65 81 139 69 113 79 136 69 153 -14 27 -42 41 -82
41 -65 0 -76 -15 -138 -170 l-58 -145 -49 1 c-214 3 -353 10 -353 17 0 5 26
99 57 210 l56 200 -27 24 c-32 27 -88 30 -127 6z m95 -1143 l41 0 -51 -24
c-58 -27 -112 -78 -151 -145 -57 -96 -28 -257 61 -343 61 -59 118 -82 211 -82
68 -1 88 3 137 27 129 63 197 218 158 359 -16 58 -70 130 -125 167 l-50 33 40
-5 c22 -3 95 -14 162 -23 l123 -17 21 -56 c30 -77 36 -223 15 -315 -58 -248
-278 -435 -532 -453 -315 -22 -597 225 -620 546 -7 83 13 197 43 260 16 32 24
37 68 44 97 16 320 36 364 31 24 -2 62 -4 85 -4z m-768 -127 c-15 -38 -19
-214 -6 -290 27 -168 109 -332 224 -447 31 -31 54 -56 51 -56 -20 0 -218 55
-306 85 -187 65 -498 232 -533 287 -31 50 111 197 303 313 60 36 246 123 265
124 4 1 5 -7 2 -16z m1850 -97 c201 -95 324 -201 324 -280 0 -30 -35 -60 -147
-126 -181 -108 -367 -188 -555 -240 -62 -18 -122 -34 -133 -37 -12 -4 2 18 40
60 78 84 138 187 178 301 31 88 32 96 32 257 l0 167 85 -30 c47 -16 126 -49
176 -72z"/>
</g>
</svg>
