<?xml version="1.0" standalone="no"?>
<!DOCTYPE svg PUBLIC "-//W3C//DTD SVG 20010904//EN"
 "http://www.w3.org/TR/2001/REC-SVG-20010904/DTD/svg10.dtd">
<svg version="1.0" xmlns="http://www.w3.org/2000/svg"
 width="458.000000pt" height="305.000000pt" viewBox="0 0 458.000000 305.000000"
 preserveAspectRatio="xMidYMid meet">
<metadata>
Created by potrace 1.16, written by Peter Selinger 2001-2019
</metadata>
<g transform="translate(0.000000,305.000000) scale(0.100000,-0.100000)"
fill="#000000" stroke="none">
<path d="M1850 2482 c-19 -16 -24 -37 -40 -181 -11 -90 -21 -165 -22 -167 -2
-2 -53 -10 -113 -19 -551 -81 -988 -280 -1275 -581 -152 -159 -210 -264 -210
-379 0 -186 133 -348 469 -573 295 -197 639 -325 1051 -389 179 -28 624 -25
819 5 172 27 410 87 547 137 292 107 627 308 800 480 238 236 243 415 19 639
-54 53 -71 76 -60 80 8 3 15 17 15 31 0 35 -38 52 -84 38 -28 -9 -37 -8 -53 7
-10 10 -70 53 -133 97 l-116 78 42 35 c26 21 43 44 43 57 1 31 -36 53 -88 53
-39 0 -49 -5 -80 -39 l-35 -39 -76 38 c-41 20 -112 52 -157 70 -46 18 -83 34
-83 36 0 2 16 22 36 44 33 36 36 43 26 66 -13 28 -48 44 -95 44 -56 0 -73 -10
-102 -59 l-29 -47 -89 22 c-49 13 -133 30 -186 39 -53 9 -97 18 -98 18 -1 1
18 35 43 75 24 40 44 81 44 92 0 28 -38 50 -85 49 -68 -1 -77 -9 -115 -105
l-36 -89 -212 -2 c-117 -1 -212 -1 -212 0 0 1 18 65 40 142 22 77 40 150 40
162 0 49 -103 73 -150 35z m55 -1359 c21 -149 128 -254 273 -269 152 -16 289
83 324 234 l13 54 60 -6 c105 -12 125 -17 125 -35 -1 -44 -34 -151 -68 -215
-69 -132 -181 -228 -330 -284 -94 -36 -254 -37 -360 -4 -145 46 -285 168 -353
310 -32 65 -63 192 -51 204 7 6 295 55 338 57 18 1 23 -6 29 -46z m1213 -75
c181 -36 297 -73 341 -106 l34 -25 -27 -24 c-33 -28 -172 -111 -269 -160 -112
-56 -275 -119 -399 -153 -62 -18 -122 -34 -133 -37 -12 -4 2 18 40 60 107 116
192 291 210 433 7 48 9 51 34 46 14 -2 90 -17 169 -34z m-1792 -49 c28 -150
110 -304 218 -413 31 -31 54 -56 51 -56 -20 0 -218 55 -306 85 -181 62 -512
239 -526 281 -7 20 141 74 341 125 105 26 195 47 201 45 5 -1 14 -31 21 -67z"/>
</g>
</svg>
