<?xml version="1.0" standalone="no"?>
<!DOCTYPE svg PUBLIC "-//W3C//DTD SVG 20010904//EN"
 "http://www.w3.org/TR/2001/REC-SVG-20010904/DTD/svg10.dtd">
<svg version="1.0" xmlns="http://www.w3.org/2000/svg"
 width="458.000000pt" height="305.000000pt" viewBox="0 0 458.000000 305.000000"
 preserveAspectRatio="xMidYMid meet">
<metadata>
Created by potrace 1.16, written by Peter Selinger 2001-2019
</metadata>
<g transform="translate(0.000000,305.000000) scale(0.100000,-0.100000)"
fill="#000000" stroke="none">
<path d="M2128 2934 c-29 -13 -39 -23 -43 -47 -15 -93 -65 -589 -60 -597 3 -6
19 -10 35 -10 25 0 30 5 44 48 35 108 156 543 156 560 0 47 -72 72 -132 46z"/>
<path d="M2710 2777 c-34 -12 -37 -16 -143 -281 -59 -148 -106 -275 -103 -283
3 -7 19 -13 35 -13 28 0 38 14 182 252 84 138 154 261 156 272 9 45 -64 75
-127 53z"/>
<path d="M3189 2578 c-28 -22 -289 -437 -289 -458 0 -16 7 -20 34 -20 31 0 49
16 228 206 106 113 194 211 196 218 2 7 -6 23 -16 36 -15 19 -31 24 -78 28
-40 2 -64 -1 -75 -10z"/>
<path d="M3495 2168 c-96 -112 -174 -210 -173 -218 2 -8 14 -16 28 -18 20 -2
70 36 243 183 119 102 217 193 217 201 0 31 -38 54 -89 54 l-50 0 -176 -202z"/>
<path d="M1935 2139 c-576 -28 -1099 -214 -1449 -515 -101 -87 -228 -239 -269
-324 -28 -57 -32 -74 -32 -150 0 -76 4 -93 32 -150 60 -121 161 -224 361 -367
327 -234 686 -374 1127 -440 152 -22 609 -25 755 -5 449 64 828 205 1175 438
191 128 311 245 376 367 27 50 33 76 37 140 4 74 3 82 -31 150 -44 89 -141
195 -270 297 -55 43 -90 77 -83 80 7 3 110 77 229 165 226 167 246 189 196
216 -51 27 -83 7 -252 -152 -89 -84 -176 -165 -192 -181 l-30 -27 -100 65
c-435 286 -984 422 -1580 393z m-399 -419 c-72 -78 -110 -135 -151 -223 -45
-98 -64 -174 -72 -289 -15 -231 71 -461 231 -622 31 -31 54 -56 51 -56 -4 0
-50 11 -104 25 -209 53 -431 144 -591 242 -183 113 -357 260 -395 334 -13 24
-10 29 36 91 139 186 382 352 669 458 87 32 330 99 364 100 13 0 4 -15 -38
-60z m1238 20 c221 -62 414 -153 611 -287 140 -96 230 -170 300 -245 l55 -59
-32 -46 c-127 -178 -556 -425 -910 -523 -62 -18 -122 -34 -133 -37 -12 -4 2
18 40 60 78 85 139 187 177 301 27 79 32 108 36 221 3 107 0 145 -16 216 -36
148 -98 265 -200 371 -30 32 -51 58 -45 58 5 0 58 -14 117 -30z m-519 -15
c109 -28 184 -72 271 -159 119 -119 174 -248 174 -406 -1 -309 -239 -565 -546
-587 -376 -27 -688 329 -610 697 45 215 217 398 427 454 72 19 210 20 284 1z"/>
<path d="M2212 1423 c53 -102 -25 -233 -139 -233 -51 0 -76 11 -120 53 l-32
30 -8 -29 c-4 -16 -8 -58 -7 -94 1 -117 67 -220 172 -271 73 -35 188 -33 264
4 236 116 218 464 -29 557 -30 11 -69 20 -87 20 l-34 0 20 -37z"/>
</g>
</svg>
