<?xml version="1.0" standalone="no"?>
<!DOCTYPE svg PUBLIC "-//W3C//DTD SVG 20010904//EN"
 "http://www.w3.org/TR/2001/REC-SVG-20010904/DTD/svg10.dtd">
<svg version="1.0" xmlns="http://www.w3.org/2000/svg"
 width="458.000000pt" height="305.000000pt" viewBox="0 0 458.000000 305.000000"
 preserveAspectRatio="xMidYMid meet">
<metadata>
Created by potrace 1.16, written by Peter Selinger 2001-2019
</metadata>
<g transform="translate(0.000000,305.000000) scale(0.100000,-0.100000)"
fill="#000000" stroke="none">
<path d="M1935 2139 c-633 -31 -1201 -255 -1535 -605 -152 -159 -210 -264
-210 -379 0 -186 133 -348 469 -573 295 -197 639 -325 1051 -389 179 -28 624
-25 819 5 172 27 410 87 547 137 159 58 410 187 560 287 252 168 403 345 421
495 20 176 -129 354 -510 611 -454 306 -986 441 -1612 411z m1523 -1215 c12
-4 22 -10 22 -15 0 -13 -119 -88 -241 -153 -134 -71 -299 -137 -441 -176 -62
-18 -122 -34 -133 -37 -12 -4 2 18 40 60 64 70 131 174 159 248 l18 46 161 13
c89 6 169 13 177 15 29 5 215 5 238 -1z m-2330 -41 l234 -17 23 -52 c33 -74
97 -166 161 -229 30 -30 52 -55 49 -55 -21 0 -218 55 -306 85 -175 61 -409
181 -504 260 l-30 24 70 1 c39 0 175 -7 303 -17z m1492 -19 c0 -3 -13 -24 -29
-47 -67 -97 -177 -177 -300 -219 -52 -18 -88 -23 -171 -23 -135 0 -220 25
-327 98 -69 47 -171 152 -159 164 2 2 70 0 149 -6 214 -16 387 -12 612 13 110
13 206 24 213 25 6 0 12 -2 12 -5z"/>
</g>
</svg>
